<?xml version="1.0" encoding="UTF-8" standalone="no"?>
<!DOCTYPE svg PUBLIC "-//W3C//DTD SVG 1.1//EN"
 "http://www.w3.org/Graphics/SVG/1.1/DTD/svg11.dtd">
<!-- Generated by graphviz version 9.0.0 (20230911.1827)
 -->
<!-- Title: classes_text_quality Pages: 1 -->
<svg width="1470pt" height="662pt"
 viewBox="0.00 0.00 1469.88 661.50" xmlns="http://www.w3.org/2000/svg" xmlns:xlink="http://www.w3.org/1999/xlink">
<g id="graph0" class="graph" transform="scale(1 1) rotate(0) translate(4 657.5)">
<title>classes_text_quality</title>
<polygon fill="white" stroke="none" points="-4,4 -4,-657.5 1465.88,-657.5 1465.88,4 -4,4"/>
<!-- text_quality.feature.scorer.dictionary.Dictionary -->
<g id="node1" class="node">
<title>text_quality.feature.scorer.dictionary.Dictionary</title>
<polygon fill="none" stroke="black" points="555,-247 555,-296 727,-296 727,-247 555,-247"/>
<text text-anchor="start" x="612.12" y="-278.7" font-family="Times,serif" font-size="14.00">Dictionary</text>
<polyline fill="none" stroke="black" points="555,-271.5 727,-271.5"/>
<polyline fill="none" stroke="black" points="555,-271.5 727,-271.5"/>
<text text-anchor="start" x="563" y="-254.2" font-family="Times,serif" font-size="14.00">score(tokens: List[str]): float</text>
</g>
<!-- text_quality.feature.scorer.scorer.Scorer -->
<g id="node12" class="node">
<title>text_quality.feature.scorer.scorer.Scorer</title>
<polygon fill="none" stroke="black" points="213.62,-415.25 213.62,-464.25 386.38,-464.25 386.38,-415.25 213.62,-415.25"/>
<text text-anchor="start" x="282.38" y="-446.95" font-family="Times,serif" font-size="14.00">Scorer</text>
<polyline fill="none" stroke="black" points="213.62,-439.75 386.38,-439.75"/>
<polyline fill="none" stroke="black" points="213.62,-439.75 386.38,-439.75"/>
<text text-anchor="start" x="221.62" y="-423.45" font-family="Times,serif" font-style="italic" font-size="14.00">score</text>
<text text-anchor="start" x="250.88" y="-423.45" font-family="Times,serif" font-size="14.00">(tokens: List[str]): float</text>
</g>
<!-- text_quality.feature.scorer.dictionary.Dictionary&#45;&gt;text_quality.feature.scorer.scorer.Scorer -->
<g id="edge1" class="edge">
<title>text_quality.feature.scorer.dictionary.Dictionary&#45;&gt;text_quality.feature.scorer.scorer.Scorer</title>
<path fill="none" stroke="black" d="M626.9,-296.26C612.08,-318.87 586.55,-351.78 555,-368 491.36,-400.72 463.16,-364.21 395,-386 377.75,-391.51 360.09,-400.31 344.74,-409.15"/>
<polygon fill="none" stroke="black" points="343.12,-406.04 336.31,-414.16 346.7,-412.05 343.12,-406.04"/>
</g>
<!-- text_quality.language.fasttext.FastTextLanguageClassifier -->
<g id="node2" class="node">
<title>text_quality.language.fasttext.FastTextLanguageClassifier</title>
<polygon fill="none" stroke="black" points="0,-403 0,-476.5 196,-476.5 196,-403 0,-403"/>
<text text-anchor="start" x="21.88" y="-459.2" font-family="Times,serif" font-size="14.00">FastTextLanguageClassifier</text>
<polyline fill="none" stroke="black" points="0,-452 196,-452"/>
<text text-anchor="start" x="37.25" y="-434.7" font-family="Times,serif" font-size="14.00">MODEL_URLS : dict</text>
<polyline fill="none" stroke="black" points="0,-427.5 196,-427.5"/>
<text text-anchor="start" x="8" y="-410.2" font-family="Times,serif" font-size="14.00">classify(text: str): tuple[str, float]</text>
</g>
<!-- text_quality.language.classifier.LanguageClassifier -->
<g id="node6" class="node">
<title>text_quality.language.classifier.LanguageClassifier</title>
<polygon fill="none" stroke="black" points="0.38,-557.25 0.38,-642.25 195.62,-642.25 195.62,-557.25 0.38,-557.25"/>
<text text-anchor="start" x="45.5" y="-624.95" font-family="Times,serif" font-size="14.00">LanguageClassifier</text>
<polyline fill="none" stroke="black" points="0.38,-617.75 195.62,-617.75"/>
<text text-anchor="start" x="8.75" y="-600.45" font-family="Times,serif" font-size="14.00">REMOVE_CHARACTERS : str</text>
<polyline fill="none" stroke="black" points="0.38,-593.25 195.62,-593.25"/>
<text text-anchor="start" x="8.38" y="-576.95" font-family="Times,serif" font-style="italic" font-size="14.00">classify</text>
<text text-anchor="start" x="48.88" y="-576.95" font-family="Times,serif" font-size="14.00">(text: str): tuple[str, float]</text>
<text text-anchor="start" x="8.38" y="-562.95" font-family="Times,serif" font-size="14.00">preprocess(text: str): str</text>
</g>
<!-- text_quality.language.fasttext.FastTextLanguageClassifier&#45;&gt;text_quality.language.classifier.LanguageClassifier -->
<g id="edge7" class="edge">
<title>text_quality.language.fasttext.FastTextLanguageClassifier&#45;&gt;text_quality.language.classifier.LanguageClassifier</title>
<path fill="none" stroke="black" d="M98,-477C98,-497.25 98,-522.86 98,-545.36"/>
<polygon fill="none" stroke="black" points="94.5,-545.29 98,-555.29 101.5,-545.29 94.5,-545.29"/>
</g>
<!-- text_quality.classifier.pipeline.Pipeline -->
<g id="node9" class="node">
<title>text_quality.classifier.pipeline.Pipeline</title>
<polygon fill="none" stroke="black" points="284.62,-546.5 284.62,-653 745.38,-653 745.38,-546.5 284.62,-546.5"/>
<text text-anchor="start" x="492.88" y="-635.7" font-family="Times,serif" font-size="14.00">Pipeline</text>
<polyline fill="none" stroke="black" points="284.62,-628.5 745.38,-628.5"/>
<text text-anchor="start" x="493.62" y="-611.2" font-family="Times,serif" font-size="14.00">features</text>
<polyline fill="none" stroke="black" points="284.62,-604 745.38,-604"/>
<text text-anchor="start" x="292.62" y="-586.7" font-family="Times,serif" font-size="14.00">classify(page: Union[Page, str]): int</text>
<text text-anchor="start" x="292.62" y="-570.2" font-family="Times,serif" font-size="14.00">classify_with_scores(page: Union[Page, str]): tuple[int, ClassifierScores, Reason]</text>
<text text-anchor="start" x="292.62" y="-553.7" font-family="Times,serif" font-size="14.00">from_file(pipeline_file: Path, featurizer: Featurizer)</text>
</g>
<!-- text_quality.language.fasttext.FastTextLanguageClassifier&#45;&gt;text_quality.classifier.pipeline.Pipeline -->
<g id="edge12" class="edge">
<title>text_quality.language.fasttext.FastTextLanguageClassifier&#45;&gt;text_quality.classifier.pipeline.Pipeline</title>
<path fill="none" stroke="black" d="M168.19,-476.97C180.34,-482.78 192.95,-488.51 205,-493.5 246.31,-510.61 291.51,-527.14 334.3,-541.84"/>
<polygon fill="black" stroke="black" points="334.38,-541.87 341.36,-540.02 345.74,-545.74 338.77,-547.59 334.38,-541.87"/>
<text text-anchor="middle" x="344.5" y="-514.7" font-family="Times,serif" font-size="14.00" fill="green">_language_classifier</text>
</g>
<!-- text_quality.feature.featurize.Featurizer -->
<g id="node3" class="node">
<title>text_quality.feature.featurize.Featurizer</title>
<polygon fill="none" stroke="black" points="404.25,-386.5 404.25,-493 769.75,-493 769.75,-386.5 404.25,-386.5"/>
<text text-anchor="start" x="559.62" y="-475.7" font-family="Times,serif" font-size="14.00">Featurizer</text>
<polyline fill="none" stroke="black" points="404.25,-468.5 769.75,-468.5"/>
<text text-anchor="start" x="565.62" y="-451.2" font-family="Times,serif" font-size="14.00">features</text>
<polyline fill="none" stroke="black" points="404.25,-444 769.75,-444"/>
<text text-anchor="start" x="412.25" y="-426.7" font-family="Times,serif" font-size="14.00">as_dataframe(features: dict[str, float]): pd.DataFrame</text>
<text text-anchor="start" x="412.25" y="-410.2" font-family="Times,serif" font-size="14.00">featurize(text: str): tuple[dict[str, float], List[str]]</text>
<text text-anchor="start" x="412.25" y="-393.7" font-family="Times,serif" font-size="14.00">featurize_as_dataframe(text: str): tuple[pd.DataFrame, List[str]]</text>
</g>
<!-- text_quality.feature.featurize.Featurizer&#45;&gt;text_quality.classifier.pipeline.Pipeline -->
<g id="edge13" class="edge">
<title>text_quality.feature.featurize.Featurizer&#45;&gt;text_quality.classifier.pipeline.Pipeline</title>
<path fill="none" stroke="black" d="M563.03,-493.36C557.05,-506.48 550.57,-520.7 544.36,-534.33"/>
<polygon fill="none" stroke="black" points="544.34,-534.36 545.49,-541.48 539.37,-545.28 538.21,-538.16 544.34,-534.36"/>
<text text-anchor="middle" x="583.25" y="-514.7" font-family="Times,serif" font-size="14.00" fill="green">_featurizer</text>
</g>
<!-- text_quality.feature.scorer.garbage.GarbageDetector -->
<g id="node4" class="node">
<title>text_quality.feature.scorer.garbage.GarbageDetector</title>
<polygon fill="none" stroke="black" points="0,-0.5 0,-156.5 172,-156.5 172,-0.5 0,-0.5"/>
<text text-anchor="start" x="39.88" y="-139.2" font-family="Times,serif" font-size="14.00">GarbageDetector</text>
<polyline fill="none" stroke="black" points="0,-132 172,-132"/>
<text text-anchor="start" x="36.5" y="-114.7" font-family="Times,serif" font-size="14.00">EPR_RULE1 : int</text>
<text text-anchor="start" x="36.5" y="-98.2" font-family="Times,serif" font-size="14.00">EPR_RULE2 : int</text>
<text text-anchor="start" x="36.5" y="-81.7" font-family="Times,serif" font-size="14.00">EPR_RULE3 : int</text>
<text text-anchor="start" x="36.5" y="-65.2" font-family="Times,serif" font-size="14.00">EPR_RULE4 : int</text>
<text text-anchor="start" x="36.5" y="-48.7" font-family="Times,serif" font-size="14.00">EPR_RULE5 : int</text>
<text text-anchor="start" x="36.5" y="-32.2" font-family="Times,serif" font-size="14.00">EPR_RULE9 : int</text>
<polyline fill="none" stroke="black" points="0,-25 172,-25"/>
<text text-anchor="start" x="8" y="-7.7" font-family="Times,serif" font-size="14.00">score(tokens: List[str]): float</text>
</g>
<!-- text_quality.feature.scorer.garbage.GarbageDetector&#45;&gt;text_quality.feature.scorer.scorer.Scorer -->
<g id="edge4" class="edge">
<title>text_quality.feature.scorer.garbage.GarbageDetector&#45;&gt;text_quality.feature.scorer.scorer.Scorer</title>
<path fill="none" stroke="black" d="M131.91,-156.57C177.81,-233.62 246.26,-348.54 279.89,-404.99"/>
<polygon fill="none" stroke="black" points="276.85,-406.72 284.97,-413.52 282.86,-403.14 276.85,-406.72"/>
</g>
<!-- text_quality.feature.featurize.Scorers -->
<g id="node13" class="node">
<title>text_quality.feature.featurize.Scorers</title>
<polygon fill="none" stroke="black" points="427,-210 427,-333 521,-333 521,-210 427,-210"/>
<text text-anchor="start" x="453.75" y="-315.7" font-family="Times,serif" font-size="14.00">Scorers</text>
<polyline fill="none" stroke="black" points="427,-308.5 521,-308.5"/>
<text text-anchor="start" x="435" y="-291.2" font-family="Times,serif" font-size="14.00">dict_score</text>
<text text-anchor="start" x="435" y="-274.7" font-family="Times,serif" font-size="14.00">dict_score_gt</text>
<text text-anchor="start" x="435" y="-258.2" font-family="Times,serif" font-size="14.00">garbage_score</text>
<text text-anchor="start" x="435" y="-241.7" font-family="Times,serif" font-size="14.00">n_gram_score</text>
<polyline fill="none" stroke="black" points="427,-234.5 521,-234.5"/>
<text text-anchor="start" x="472.12" y="-217.2" font-family="Times,serif" font-size="14.00"> </text>
</g>
<!-- text_quality.feature.scorer.garbage.GarbageDetector&#45;&gt;text_quality.feature.featurize.Scorers -->
<g id="edge10" class="edge">
<title>text_quality.feature.scorer.garbage.GarbageDetector&#45;&gt;text_quality.feature.featurize.Scorers</title>
<path fill="none" stroke="black" d="M172.45,-151.79C175.29,-153.6 178.15,-155.34 181,-157 256.83,-201.12 353.01,-234.59 414.05,-253.39"/>
<polygon fill="black" stroke="black" points="414.17,-253.43 421.08,-251.35 425.66,-256.92 418.75,-259 414.17,-253.43"/>
<text text-anchor="middle" x="281" y="-178.2" font-family="Times,serif" font-size="14.00" fill="green">garbage_score</text>
</g>
<!-- text_quality.feature.scorer.dictionary.HunspellDictionary -->
<g id="node5" class="node">
<title>text_quality.feature.scorer.dictionary.HunspellDictionary</title>
<polygon fill="none" stroke="black" points="729.75,-54 729.75,-103 1062.25,-103 1062.25,-54 729.75,-54"/>
<text text-anchor="start" x="842.75" y="-85.7" font-family="Times,serif" font-size="14.00">HunspellDictionary</text>
<polyline fill="none" stroke="black" points="729.75,-78.5 1062.25,-78.5"/>
<polyline fill="none" stroke="black" points="729.75,-78.5 1062.25,-78.5"/>
<text text-anchor="start" x="737.75" y="-61.2" font-family="Times,serif" font-size="14.00">from_path(path: Path, language: str): &#39;HunspellDictionary&#39;</text>
</g>
<!-- text_quality.feature.scorer.dictionary.HunspellDictionary&#45;&gt;text_quality.feature.scorer.dictionary.Dictionary -->
<g id="edge2" class="edge">
<title>text_quality.feature.scorer.dictionary.HunspellDictionary&#45;&gt;text_quality.feature.scorer.dictionary.Dictionary</title>
<path fill="none" stroke="black" d="M863.96,-103.5C817.75,-138.11 732.38,-202.06 681.74,-239.98"/>
<polygon fill="none" stroke="black" points="679.82,-237.05 673.92,-245.84 684.02,-242.65 679.82,-237.05"/>
</g>
<!-- text_quality.feature.scorer.dictionary.HunspellDictionary&#45;&gt;text_quality.feature.featurize.Scorers -->
<g id="edge8" class="edge">
<title>text_quality.feature.scorer.dictionary.HunspellDictionary&#45;&gt;text_quality.feature.featurize.Scorers</title>
<path fill="none" stroke="black" d="M846.52,-103.41C811.85,-119.66 764.16,-141.04 721,-157 644.84,-185.16 617.37,-170.77 546,-209.5 541.09,-212.17 536.21,-215.2 531.44,-218.47"/>
<polygon fill="black" stroke="black" points="531.63,-218.33 529.13,-225.09 521.93,-225.39 524.42,-218.62 531.63,-218.33"/>
<text text-anchor="middle" x="680.75" y="-178.2" font-family="Times,serif" font-size="14.00" fill="green">dict_score</text>
</g>
<!-- text_quality.feature.tokenizer.NautilusOcrTokenizer -->
<g id="node7" class="node">
<title>text_quality.feature.tokenizer.NautilusOcrTokenizer</title>
<polygon fill="none" stroke="black" points="1080.5,-54 1080.5,-103 1243.5,-103 1243.5,-54 1080.5,-54"/>
<text text-anchor="start" x="1101.62" y="-85.7" font-family="Times,serif" font-size="14.00">NautilusOcrTokenizer</text>
<polyline fill="none" stroke="black" points="1080.5,-78.5 1243.5,-78.5"/>
<polyline fill="none" stroke="black" points="1080.5,-78.5 1243.5,-78.5"/>
<text text-anchor="start" x="1088.5" y="-61.2" font-family="Times,serif" font-size="14.00">tokenize(text: str): List[str]</text>
</g>
<!-- text_quality.feature.tokenizer.Tokenizer -->
<g id="node15" class="node">
<title>text_quality.feature.tokenizer.Tokenizer</title>
<polygon fill="none" stroke="black" points="933.25,-247 933.25,-296 1094.75,-296 1094.75,-247 933.25,-247"/>
<text text-anchor="start" x="986.62" y="-278.7" font-family="Times,serif" font-size="14.00">Tokenizer</text>
<polyline fill="none" stroke="black" points="933.25,-271.5 1094.75,-271.5"/>
<polyline fill="none" stroke="black" points="933.25,-271.5 1094.75,-271.5"/>
<text text-anchor="start" x="941.25" y="-255.2" font-family="Times,serif" font-style="italic" font-size="14.00">tokenize</text>
<text text-anchor="start" x="985.5" y="-255.2" font-family="Times,serif" font-size="14.00">(text: str): List[str]</text>
</g>
<!-- text_quality.feature.tokenizer.NautilusOcrTokenizer&#45;&gt;text_quality.feature.tokenizer.Tokenizer -->
<g id="edge6" class="edge">
<title>text_quality.feature.tokenizer.NautilusOcrTokenizer&#45;&gt;text_quality.feature.tokenizer.Tokenizer</title>
<path fill="none" stroke="black" d="M1143.55,-103.3C1117.23,-137.28 1068.79,-199.79 1039.18,-238"/>
<polygon fill="none" stroke="black" points="1036.73,-235.45 1033.37,-245.5 1042.26,-239.74 1036.73,-235.45"/>
</g>
<!-- text_quality.page.page.Page -->
<g id="node8" class="node">
<title>text_quality.page.page.Page</title>
<polygon fill="none" stroke="black" points="1261.88,-25.25 1261.88,-131.75 1388.12,-131.75 1388.12,-25.25 1261.88,-25.25"/>
<text text-anchor="start" x="1311.88" y="-114.45" font-family="Times,serif" font-size="14.00">Page</text>
<polyline fill="none" stroke="black" points="1261.88,-107.25 1388.12,-107.25"/>
<text text-anchor="start" x="1319.75" y="-89.95" font-family="Times,serif" font-size="14.00">id</text>
<polyline fill="none" stroke="black" points="1261.88,-82.75 1388.12,-82.75"/>
<text text-anchor="start" x="1269.88" y="-65.45" font-family="Times,serif" font-size="14.00">from_file(file: Path)</text>
<text text-anchor="start" x="1269.88" y="-48.95" font-family="Times,serif" font-size="14.00">get_text()</text>
<text text-anchor="start" x="1269.88" y="-32.45" font-family="Times,serif" font-size="14.00">lines(): List[str]</text>
</g>
<!-- text_quality.feature.scorer.q_gram.QGram -->
<g id="node10" class="node">
<title>text_quality.feature.scorer.q_gram.QGram</title>
<polygon fill="none" stroke="black" points="190,-29.25 190,-127.75 410,-127.75 410,-29.25 190,-29.25"/>
<text text-anchor="start" x="279.38" y="-110.45" font-family="Times,serif" font-size="14.00">QGram</text>
<polyline fill="none" stroke="black" points="190,-103.25 410,-103.25"/>
<polyline fill="none" stroke="black" points="190,-103.25 410,-103.25"/>
<text text-anchor="start" x="198" y="-85.95" font-family="Times,serif" font-size="14.00">from_file(filepath: Path, gamma: int)</text>
<text text-anchor="start" x="198" y="-69.45" font-family="Times,serif" font-size="14.00">get_rank(qgram: str): Optional[int]</text>
<text text-anchor="start" x="198" y="-52.95" font-family="Times,serif" font-size="14.00">score(tokens: List[str]): float</text>
<text text-anchor="start" x="198" y="-36.45" font-family="Times,serif" font-size="14.00">to_file(filepath: Path)</text>
</g>
<!-- text_quality.feature.scorer.q_gram.QGram&#45;&gt;text_quality.feature.scorer.scorer.Scorer -->
<g id="edge5" class="edge">
<title>text_quality.feature.scorer.q_gram.QGram&#45;&gt;text_quality.feature.scorer.scorer.Scorer</title>
<path fill="none" stroke="black" d="M300,-127.95C300,-201.51 300,-339.61 300,-404.02"/>
<polygon fill="none" stroke="black" points="296.5,-403.65 300,-413.65 303.5,-403.65 296.5,-403.65"/>
</g>
<!-- text_quality.feature.scorer.q_gram.QGram&#45;&gt;text_quality.feature.featurize.Scorers -->
<g id="edge11" class="edge">
<title>text_quality.feature.scorer.q_gram.QGram&#45;&gt;text_quality.feature.featurize.Scorers</title>
<path fill="none" stroke="black" d="M336.55,-128.16C352.3,-148.3 371.31,-171.56 389.75,-191.5 398.33,-200.77 407.79,-210.27 417.17,-219.31"/>
<polygon fill="black" stroke="black" points="417.15,-219.29 424.26,-220.52 425.85,-227.56 418.74,-226.32 417.15,-219.29"/>
<text text-anchor="middle" x="428.62" y="-178.2" font-family="Times,serif" font-size="14.00" fill="green">n_gram_score</text>
</g>
<!-- text_quality.classifier.pipeline.Reason -->
<g id="node11" class="node">
<title>text_quality.classifier.pipeline.Reason</title>
<polygon fill="none" stroke="black" points="1406.12,-41.75 1406.12,-115.25 1461.88,-115.25 1461.88,-41.75 1406.12,-41.75"/>
<text text-anchor="start" x="1414.12" y="-97.95" font-family="Times,serif" font-size="14.00">Reason</text>
<polyline fill="none" stroke="black" points="1406.12,-90.75 1461.88,-90.75"/>
<text text-anchor="start" x="1419" y="-73.45" font-family="Times,serif" font-size="14.00">name</text>
<polyline fill="none" stroke="black" points="1406.12,-66.25 1461.88,-66.25"/>
<text text-anchor="start" x="1432.12" y="-48.95" font-family="Times,serif" font-size="14.00"> </text>
</g>
<!-- text_quality.feature.featurize.Scorers&#45;&gt;text_quality.feature.featurize.Featurizer -->
<g id="edge14" class="edge">
<title>text_quality.feature.featurize.Scorers&#45;&gt;text_quality.feature.featurize.Featurizer</title>
<path fill="none" stroke="black" d="M515.44,-333.46C524.77,-347.2 534.7,-361.8 544.09,-375.63"/>
<polygon fill="none" stroke="black" points="543.9,-375.35 550.58,-378.06 550.65,-385.27 543.97,-382.56 543.9,-375.35"/>
<text text-anchor="middle" x="560.5" y="-354.7" font-family="Times,serif" font-size="14.00" fill="green">_scorers</text>
</g>
<!-- text_quality.feature.scorer.dictionary.TokenDictionary -->
<g id="node14" class="node">
<title>text_quality.feature.scorer.dictionary.TokenDictionary</title>
<polygon fill="none" stroke="black" points="428.5,-45.75 428.5,-111.25 711.5,-111.25 711.5,-45.75 428.5,-45.75"/>
<text text-anchor="start" x="523.88" y="-93.95" font-family="Times,serif" font-size="14.00">TokenDictionary</text>
<polyline fill="none" stroke="black" points="428.5,-86.75 711.5,-86.75"/>
<polyline fill="none" stroke="black" points="428.5,-86.75 711.5,-86.75"/>
<text text-anchor="start" x="436.5" y="-69.45" font-family="Times,serif" font-size="14.00">from_file(filepath: Path)</text>
<text text-anchor="start" x="436.5" y="-52.95" font-family="Times,serif" font-size="14.00">to_file(filepath: Path, sort: bool, overwrite: bool)</text>
</g>
<!-- text_quality.feature.scorer.dictionary.TokenDictionary&#45;&gt;text_quality.feature.scorer.dictionary.Dictionary -->
<g id="edge3" class="edge">
<title>text_quality.feature.scorer.dictionary.TokenDictionary&#45;&gt;text_quality.feature.scorer.dictionary.Dictionary</title>
<path fill="none" stroke="black" d="M593.43,-111.5C605.35,-129.33 618.97,-152.44 627,-175 633.87,-194.3 637.37,-216.94 639.15,-235.33"/>
<polygon fill="none" stroke="black" points="635.66,-235.54 639.97,-245.22 642.63,-234.96 635.66,-235.54"/>
</g>
<!-- text_quality.feature.scorer.dictionary.TokenDictionary&#45;&gt;text_quality.feature.featurize.Scorers -->
<g id="edge9" class="edge">
<title>text_quality.feature.scorer.dictionary.TokenDictionary&#45;&gt;text_quality.feature.featurize.Scorers</title>
<path fill="none" stroke="black" d="M525.39,-111.53C506.17,-128.07 485.73,-150.02 475.25,-175 472.35,-181.91 470.44,-189.35 469.25,-196.92"/>
<polygon fill="black" stroke="black" points="469.25,-196.89 472.6,-203.28 467.99,-208.82 464.64,-202.43 469.25,-196.89"/>
<text text-anchor="middle" x="512.38" y="-178.2" font-family="Times,serif" font-size="14.00" fill="green">dict_score_gt</text>
</g>
<!-- text_quality.feature.tokenizer.Tokenizer&#45;&gt;text_quality.feature.featurize.Featurizer -->
<g id="edge15" class="edge">
<title>text_quality.feature.tokenizer.Tokenizer&#45;&gt;text_quality.feature.featurize.Featurizer</title>
<path fill="none" stroke="black" d="M952.37,-296.5C895.48,-318.65 808.76,-352.41 734.08,-381.48"/>
<polygon fill="none" stroke="black" points="734.23,-381.43 730.09,-387.33 723.05,-385.78 727.19,-379.88 734.23,-381.43"/>
<text text-anchor="middle" x="828.5" y="-354.7" font-family="Times,serif" font-size="14.00" fill="green">_tokenizer</text>
</g>
</g>
</svg>
