<?xml version="1.0" encoding="utf-8"?>
<svg version="1.1" baseProfile="full"  width="528" height="528" viewBox="0 0 528 528"
		 xmlns="http://www.w3.org/2000/svg" xmlns:xlink="http://www.w3.org/1999/xlink" xmlns:ev="http://www.w3.org/2001/xml-events">
<desc></desc>
<rect width="528" height="528" fill="#ffffff" cx="0" cy="0" />
<defs>
<rect id="p" width="16" height="16" />
</defs>
<g fill="#000000">
<use x="0" y="0" xlink:href="#p" />
<use x="0" y="16" xlink:href="#p" />
<use x="0" y="32" xlink:href="#p" />
<use x="0" y="48" xlink:href="#p" />
<use x="0" y="64" xlink:href="#p" />
<use x="0" y="80" xlink:href="#p" />
<use x="0" y="96" xlink:href="#p" />
<use x="0" y="128" xlink:href="#p" />
<use x="0" y="160" xlink:href="#p" />
<use x="0" y="208" xlink:href="#p" />
<use x="0" y="224" xlink:href="#p" />
<use x="0" y="240" xlink:href="#p" />
<use x="0" y="320" xlink:href="#p" />
<use x="0" y="352" xlink:href="#p" />
<use x="0" y="368" xlink:href="#p" />
<use x="0" y="416" xlink:href="#p" />
<use x="0" y="432" xlink:href="#p" />
<use x="0" y="448" xlink:href="#p" />
<use x="0" y="464" xlink:href="#p" />
<use x="0" y="480" xlink:href="#p" />
<use x="0" y="496" xlink:href="#p" />
<use x="0" y="512" xlink:href="#p" />
<use x="16" y="0" xlink:href="#p" />
<use x="16" y="96" xlink:href="#p" />
<use x="16" y="144" xlink:href="#p" />
<use x="16" y="160" xlink:href="#p" />
<use x="16" y="176" xlink:href="#p" />
<use x="16" y="208" xlink:href="#p" />
<use x="16" y="224" xlink:href="#p" />
<use x="16" y="240" xlink:href="#p" />
<use x="16" y="272" xlink:href="#p" />
<use x="16" y="288" xlink:href="#p" />
<use x="16" y="336" xlink:href="#p" />
<use x="16" y="352" xlink:href="#p" />
<use x="16" y="384" xlink:href="#p" />
<use x="16" y="416" xlink:href="#p" />
<use x="16" y="512" xlink:href="#p" />
<use x="32" y="0" xlink:href="#p" />
<use x="32" y="32" xlink:href="#p" />
<use x="32" y="48" xlink:href="#p" />
<use x="32" y="64" xlink:href="#p" />
<use x="32" y="96" xlink:href="#p" />
<use x="32" y="128" xlink:href="#p" />
<use x="32" y="224" xlink:href="#p" />
<use x="32" y="256" xlink:href="#p" />
<use x="32" y="272" xlink:href="#p" />
<use x="32" y="288" xlink:href="#p" />
<use x="32" y="304" xlink:href="#p" />
<use x="32" y="320" xlink:href="#p" />
<use x="32" y="384" xlink:href="#p" />
<use x="32" y="416" xlink:href="#p" />
<use x="32" y="448" xlink:href="#p" />
<use x="32" y="464" xlink:href="#p" />
<use x="32" y="480" xlink:href="#p" />
<use x="32" y="512" xlink:href="#p" />
<use x="48" y="0" xlink:href="#p" />
<use x="48" y="32" xlink:href="#p" />
<use x="48" y="48" xlink:href="#p" />
<use x="48" y="64" xlink:href="#p" />
<use x="48" y="96" xlink:href="#p" />
<use x="48" y="128" xlink:href="#p" />
<use x="48" y="208" xlink:href="#p" />
<use x="48" y="224" xlink:href="#p" />
<use x="48" y="256" xlink:href="#p" />
<use x="48" y="272" xlink:href="#p" />
<use x="48" y="288" xlink:href="#p" />
<use x="48" y="304" xlink:href="#p" />
<use x="48" y="320" xlink:href="#p" />
<use x="48" y="352" xlink:href="#p" />
<use x="48" y="416" xlink:href="#p" />
<use x="48" y="448" xlink:href="#p" />
<use x="48" y="464" xlink:href="#p" />
<use x="48" y="480" xlink:href="#p" />
<use x="48" y="512" xlink:href="#p" />
<use x="64" y="0" xlink:href="#p" />
<use x="64" y="32" xlink:href="#p" />
<use x="64" y="48" xlink:href="#p" />
<use x="64" y="64" xlink:href="#p" />
<use x="64" y="96" xlink:href="#p" />
<use x="64" y="160" xlink:href="#p" />
<use x="64" y="208" xlink:href="#p" />
<use x="64" y="224" xlink:href="#p" />
<use x="64" y="240" xlink:href="#p" />
<use x="64" y="336" xlink:href="#p" />
<use x="64" y="352" xlink:href="#p" />
<use x="64" y="416" xlink:href="#p" />
<use x="64" y="448" xlink:href="#p" />
<use x="64" y="464" xlink:href="#p" />
<use x="64" y="480" xlink:href="#p" />
<use x="64" y="512" xlink:href="#p" />
<use x="80" y="0" xlink:href="#p" />
<use x="80" y="96" xlink:href="#p" />
<use x="80" y="128" xlink:href="#p" />
<use x="80" y="176" xlink:href="#p" />
<use x="80" y="208" xlink:href="#p" />
<use x="80" y="224" xlink:href="#p" />
<use x="80" y="240" xlink:href="#p" />
<use x="80" y="272" xlink:href="#p" />
<use x="80" y="304" xlink:href="#p" />
<use x="80" y="320" xlink:href="#p" />
<use x="80" y="336" xlink:href="#p" />
<use x="80" y="368" xlink:href="#p" />
<use x="80" y="384" xlink:href="#p" />
<use x="80" y="416" xlink:href="#p" />
<use x="80" y="512" xlink:href="#p" />
<use x="96" y="0" xlink:href="#p" />
<use x="96" y="16" xlink:href="#p" />
<use x="96" y="32" xlink:href="#p" />
<use x="96" y="48" xlink:href="#p" />
<use x="96" y="64" xlink:href="#p" />
<use x="96" y="80" xlink:href="#p" />
<use x="96" y="96" xlink:href="#p" />
<use x="96" y="128" xlink:href="#p" />
<use x="96" y="160" xlink:href="#p" />
<use x="96" y="192" xlink:href="#p" />
<use x="96" y="224" xlink:href="#p" />
<use x="96" y="256" xlink:href="#p" />
<use x="96" y="288" xlink:href="#p" />
<use x="96" y="320" xlink:href="#p" />
<use x="96" y="352" xlink:href="#p" />
<use x="96" y="384" xlink:href="#p" />
<use x="96" y="416" xlink:href="#p" />
<use x="96" y="432" xlink:href="#p" />
<use x="96" y="448" xlink:href="#p" />
<use x="96" y="464" xlink:href="#p" />
<use x="96" y="480" xlink:href="#p" />
<use x="96" y="496" xlink:href="#p" />
<use x="96" y="512" xlink:href="#p" />
<use x="112" y="128" xlink:href="#p" />
<use x="112" y="160" xlink:href="#p" />
<use x="112" y="192" xlink:href="#p" />
<use x="112" y="256" xlink:href="#p" />
<use x="112" y="272" xlink:href="#p" />
<use x="112" y="288" xlink:href="#p" />
<use x="112" y="304" xlink:href="#p" />
<use x="112" y="352" xlink:href="#p" />
<use x="112" y="368" xlink:href="#p" />
<use x="112" y="384" xlink:href="#p" />
<use x="128" y="0" xlink:href="#p" />
<use x="128" y="16" xlink:href="#p" />
<use x="128" y="48" xlink:href="#p" />
<use x="128" y="96" xlink:href="#p" />
<use x="128" y="112" xlink:href="#p" />
<use x="128" y="144" xlink:href="#p" />
<use x="128" y="160" xlink:href="#p" />
<use x="128" y="192" xlink:href="#p" />
<use x="128" y="208" xlink:href="#p" />
<use x="128" y="224" xlink:href="#p" />
<use x="128" y="272" xlink:href="#p" />
<use x="128" y="304" xlink:href="#p" />
<use x="128" y="336" xlink:href="#p" />
<use x="128" y="352" xlink:href="#p" />
<use x="128" y="384" xlink:href="#p" />
<use x="128" y="400" xlink:href="#p" />
<use x="128" y="416" xlink:href="#p" />
<use x="128" y="432" xlink:href="#p" />
<use x="128" y="464" xlink:href="#p" />
<use x="128" y="480" xlink:href="#p" />
<use x="128" y="512" xlink:href="#p" />
<use x="144" y="0" xlink:href="#p" />
<use x="144" y="16" xlink:href="#p" />
<use x="144" y="32" xlink:href="#p" />
<use x="144" y="48" xlink:href="#p" />
<use x="144" y="64" xlink:href="#p" />
<use x="144" y="80" xlink:href="#p" />
<use x="144" y="112" xlink:href="#p" />
<use x="144" y="144" xlink:href="#p" />
<use x="144" y="160" xlink:href="#p" />
<use x="144" y="176" xlink:href="#p" />
<use x="144" y="208" xlink:href="#p" />
<use x="144" y="224" xlink:href="#p" />
<use x="144" y="256" xlink:href="#p" />
<use x="144" y="288" xlink:href="#p" />
<use x="144" y="304" xlink:href="#p" />
<use x="144" y="336" xlink:href="#p" />
<use x="144" y="448" xlink:href="#p" />
<use x="144" y="496" xlink:href="#p" />
<use x="144" y="512" xlink:href="#p" />
<use x="160" y="0" xlink:href="#p" />
<use x="160" y="32" xlink:href="#p" />
<use x="160" y="48" xlink:href="#p" />
<use x="160" y="64" xlink:href="#p" />
<use x="160" y="96" xlink:href="#p" />
<use x="160" y="112" xlink:href="#p" />
<use x="160" y="160" xlink:href="#p" />
<use x="160" y="192" xlink:href="#p" />
<use x="160" y="208" xlink:href="#p" />
<use x="160" y="224" xlink:href="#p" />
<use x="160" y="240" xlink:href="#p" />
<use x="160" y="320" xlink:href="#p" />
<use x="160" y="336" xlink:href="#p" />
<use x="160" y="368" xlink:href="#p" />
<use x="160" y="384" xlink:href="#p" />
<use x="160" y="432" xlink:href="#p" />
<use x="160" y="448" xlink:href="#p" />
<use x="160" y="464" xlink:href="#p" />
<use x="160" y="512" xlink:href="#p" />
<use x="176" y="32" xlink:href="#p" />
<use x="176" y="80" xlink:href="#p" />
<use x="176" y="144" xlink:href="#p" />
<use x="176" y="192" xlink:href="#p" />
<use x="176" y="208" xlink:href="#p" />
<use x="176" y="224" xlink:href="#p" />
<use x="176" y="256" xlink:href="#p" />
<use x="176" y="288" xlink:href="#p" />
<use x="176" y="304" xlink:href="#p" />
<use x="176" y="336" xlink:href="#p" />
<use x="176" y="352" xlink:href="#p" />
<use x="176" y="384" xlink:href="#p" />
<use x="176" y="400" xlink:href="#p" />
<use x="176" y="432" xlink:href="#p" />
<use x="176" y="448" xlink:href="#p" />
<use x="192" y="0" xlink:href="#p" />
<use x="192" y="32" xlink:href="#p" />
<use x="192" y="64" xlink:href="#p" />
<use x="192" y="96" xlink:href="#p" />
<use x="192" y="112" xlink:href="#p" />
<use x="192" y="144" xlink:href="#p" />
<use x="192" y="176" xlink:href="#p" />
<use x="192" y="320" xlink:href="#p" />
<use x="192" y="336" xlink:href="#p" />
<use x="192" y="368" xlink:href="#p" />
<use x="192" y="384" xlink:href="#p" />
<use x="192" y="416" xlink:href="#p" />
<use x="192" y="496" xlink:href="#p" />
<use x="192" y="512" xlink:href="#p" />
<use x="208" y="0" xlink:href="#p" />
<use x="208" y="16" xlink:href="#p" />
<use x="208" y="64" xlink:href="#p" />
<use x="208" y="80" xlink:href="#p" />
<use x="208" y="176" xlink:href="#p" />
<use x="208" y="208" xlink:href="#p" />
<use x="208" y="256" xlink:href="#p" />
<use x="208" y="272" xlink:href="#p" />
<use x="208" y="320" xlink:href="#p" />
<use x="208" y="336" xlink:href="#p" />
<use x="208" y="368" xlink:href="#p" />
<use x="208" y="448" xlink:href="#p" />
<use x="208" y="464" xlink:href="#p" />
<use x="208" y="480" xlink:href="#p" />
<use x="224" y="48" xlink:href="#p" />
<use x="224" y="64" xlink:href="#p" />
<use x="224" y="80" xlink:href="#p" />
<use x="224" y="96" xlink:href="#p" />
<use x="224" y="128" xlink:href="#p" />
<use x="224" y="144" xlink:href="#p" />
<use x="224" y="160" xlink:href="#p" />
<use x="224" y="176" xlink:href="#p" />
<use x="224" y="224" xlink:href="#p" />
<use x="224" y="256" xlink:href="#p" />
<use x="224" y="272" xlink:href="#p" />
<use x="224" y="288" xlink:href="#p" />
<use x="224" y="304" xlink:href="#p" />
<use x="224" y="320" xlink:href="#p" />
<use x="224" y="336" xlink:href="#p" />
<use x="224" y="384" xlink:href="#p" />
<use x="224" y="416" xlink:href="#p" />
<use x="224" y="432" xlink:href="#p" />
<use x="224" y="480" xlink:href="#p" />
<use x="224" y="512" xlink:href="#p" />
<use x="240" y="32" xlink:href="#p" />
<use x="240" y="48" xlink:href="#p" />
<use x="240" y="192" xlink:href="#p" />
<use x="240" y="224" xlink:href="#p" />
<use x="240" y="256" xlink:href="#p" />
<use x="240" y="272" xlink:href="#p" />
<use x="240" y="288" xlink:href="#p" />
<use x="240" y="320" xlink:href="#p" />
<use x="240" y="336" xlink:href="#p" />
<use x="240" y="384" xlink:href="#p" />
<use x="240" y="400" xlink:href="#p" />
<use x="240" y="448" xlink:href="#p" />
<use x="240" y="496" xlink:href="#p" />
<use x="240" y="512" xlink:href="#p" />
<use x="256" y="32" xlink:href="#p" />
<use x="256" y="48" xlink:href="#p" />
<use x="256" y="96" xlink:href="#p" />
<use x="256" y="144" xlink:href="#p" />
<use x="256" y="208" xlink:href="#p" />
<use x="256" y="224" xlink:href="#p" />
<use x="256" y="240" xlink:href="#p" />
<use x="256" y="256" xlink:href="#p" />
<use x="256" y="352" xlink:href="#p" />
<use x="256" y="368" xlink:href="#p" />
<use x="256" y="400" xlink:href="#p" />
<use x="256" y="432" xlink:href="#p" />
<use x="256" y="496" xlink:href="#p" />
<use x="256" y="512" xlink:href="#p" />
<use x="272" y="0" xlink:href="#p" />
<use x="272" y="32" xlink:href="#p" />
<use x="272" y="112" xlink:href="#p" />
<use x="272" y="160" xlink:href="#p" />
<use x="272" y="208" xlink:href="#p" />
<use x="272" y="272" xlink:href="#p" />
<use x="272" y="288" xlink:href="#p" />
<use x="272" y="352" xlink:href="#p" />
<use x="272" y="400" xlink:href="#p" />
<use x="272" y="448" xlink:href="#p" />
<use x="272" y="480" xlink:href="#p" />
<use x="272" y="496" xlink:href="#p" />
<use x="272" y="512" xlink:href="#p" />
<use x="288" y="0" xlink:href="#p" />
<use x="288" y="16" xlink:href="#p" />
<use x="288" y="96" xlink:href="#p" />
<use x="288" y="128" xlink:href="#p" />
<use x="288" y="176" xlink:href="#p" />
<use x="288" y="192" xlink:href="#p" />
<use x="288" y="208" xlink:href="#p" />
<use x="288" y="224" xlink:href="#p" />
<use x="288" y="240" xlink:href="#p" />
<use x="288" y="256" xlink:href="#p" />
<use x="288" y="320" xlink:href="#p" />
<use x="288" y="336" xlink:href="#p" />
<use x="288" y="352" xlink:href="#p" />
<use x="288" y="368" xlink:href="#p" />
<use x="288" y="400" xlink:href="#p" />
<use x="288" y="464" xlink:href="#p" />
<use x="288" y="480" xlink:href="#p" />
<use x="304" y="32" xlink:href="#p" />
<use x="304" y="80" xlink:href="#p" />
<use x="304" y="128" xlink:href="#p" />
<use x="304" y="176" xlink:href="#p" />
<use x="304" y="192" xlink:href="#p" />
<use x="304" y="240" xlink:href="#p" />
<use x="304" y="256" xlink:href="#p" />
<use x="304" y="272" xlink:href="#p" />
<use x="304" y="304" xlink:href="#p" />
<use x="304" y="368" xlink:href="#p" />
<use x="304" y="400" xlink:href="#p" />
<use x="304" y="416" xlink:href="#p" />
<use x="304" y="448" xlink:href="#p" />
<use x="304" y="464" xlink:href="#p" />
<use x="304" y="480" xlink:href="#p" />
<use x="304" y="496" xlink:href="#p" />
<use x="320" y="0" xlink:href="#p" />
<use x="320" y="48" xlink:href="#p" />
<use x="320" y="64" xlink:href="#p" />
<use x="320" y="80" xlink:href="#p" />
<use x="320" y="96" xlink:href="#p" />
<use x="320" y="112" xlink:href="#p" />
<use x="320" y="144" xlink:href="#p" />
<use x="320" y="160" xlink:href="#p" />
<use x="320" y="176" xlink:href="#p" />
<use x="320" y="240" xlink:href="#p" />
<use x="320" y="256" xlink:href="#p" />
<use x="320" y="272" xlink:href="#p" />
<use x="320" y="288" xlink:href="#p" />
<use x="320" y="320" xlink:href="#p" />
<use x="320" y="400" xlink:href="#p" />
<use x="320" y="416" xlink:href="#p" />
<use x="320" y="432" xlink:href="#p" />
<use x="320" y="448" xlink:href="#p" />
<use x="320" y="464" xlink:href="#p" />
<use x="336" y="0" xlink:href="#p" />
<use x="336" y="16" xlink:href="#p" />
<use x="336" y="80" xlink:href="#p" />
<use x="336" y="128" xlink:href="#p" />
<use x="336" y="208" xlink:href="#p" />
<use x="336" y="224" xlink:href="#p" />
<use x="336" y="240" xlink:href="#p" />
<use x="336" y="256" xlink:href="#p" />
<use x="336" y="288" xlink:href="#p" />
<use x="336" y="320" xlink:href="#p" />
<use x="336" y="336" xlink:href="#p" />
<use x="336" y="352" xlink:href="#p" />
<use x="336" y="416" xlink:href="#p" />
<use x="336" y="432" xlink:href="#p" />
<use x="336" y="464" xlink:href="#p" />
<use x="336" y="512" xlink:href="#p" />
<use x="352" y="16" xlink:href="#p" />
<use x="352" y="32" xlink:href="#p" />
<use x="352" y="48" xlink:href="#p" />
<use x="352" y="80" xlink:href="#p" />
<use x="352" y="96" xlink:href="#p" />
<use x="352" y="128" xlink:href="#p" />
<use x="352" y="192" xlink:href="#p" />
<use x="352" y="256" xlink:href="#p" />
<use x="352" y="272" xlink:href="#p" />
<use x="352" y="288" xlink:href="#p" />
<use x="352" y="304" xlink:href="#p" />
<use x="352" y="336" xlink:href="#p" />
<use x="352" y="384" xlink:href="#p" />
<use x="352" y="416" xlink:href="#p" />
<use x="352" y="464" xlink:href="#p" />
<use x="352" y="480" xlink:href="#p" />
<use x="352" y="496" xlink:href="#p" />
<use x="368" y="0" xlink:href="#p" />
<use x="368" y="16" xlink:href="#p" />
<use x="368" y="112" xlink:href="#p" />
<use x="368" y="128" xlink:href="#p" />
<use x="368" y="144" xlink:href="#p" />
<use x="368" y="160" xlink:href="#p" />
<use x="368" y="192" xlink:href="#p" />
<use x="368" y="240" xlink:href="#p" />
<use x="368" y="256" xlink:href="#p" />
<use x="368" y="272" xlink:href="#p" />
<use x="368" y="304" xlink:href="#p" />
<use x="368" y="336" xlink:href="#p" />
<use x="368" y="352" xlink:href="#p" />
<use x="368" y="368" xlink:href="#p" />
<use x="368" y="416" xlink:href="#p" />
<use x="368" y="432" xlink:href="#p" />
<use x="368" y="448" xlink:href="#p" />
<use x="368" y="464" xlink:href="#p" />
<use x="368" y="512" xlink:href="#p" />
<use x="384" y="16" xlink:href="#p" />
<use x="384" y="32" xlink:href="#p" />
<use x="384" y="48" xlink:href="#p" />
<use x="384" y="64" xlink:href="#p" />
<use x="384" y="80" xlink:href="#p" />
<use x="384" y="96" xlink:href="#p" />
<use x="384" y="128" xlink:href="#p" />
<use x="384" y="192" xlink:href="#p" />
<use x="384" y="208" xlink:href="#p" />
<use x="384" y="224" xlink:href="#p" />
<use x="384" y="240" xlink:href="#p" />
<use x="384" y="272" xlink:href="#p" />
<use x="384" y="288" xlink:href="#p" />
<use x="384" y="304" xlink:href="#p" />
<use x="384" y="320" xlink:href="#p" />
<use x="384" y="352" xlink:href="#p" />
<use x="384" y="384" xlink:href="#p" />
<use x="384" y="400" xlink:href="#p" />
<use x="384" y="416" xlink:href="#p" />
<use x="384" y="432" xlink:href="#p" />
<use x="384" y="448" xlink:href="#p" />
<use x="384" y="496" xlink:href="#p" />
<use x="400" y="192" xlink:href="#p" />
<use x="400" y="240" xlink:href="#p" />
<use x="400" y="256" xlink:href="#p" />
<use x="400" y="272" xlink:href="#p" />
<use x="400" y="288" xlink:href="#p" />
<use x="400" y="352" xlink:href="#p" />
<use x="400" y="384" xlink:href="#p" />
<use x="400" y="448" xlink:href="#p" />
<use x="416" y="0" xlink:href="#p" />
<use x="416" y="16" xlink:href="#p" />
<use x="416" y="32" xlink:href="#p" />
<use x="416" y="48" xlink:href="#p" />
<use x="416" y="64" xlink:href="#p" />
<use x="416" y="80" xlink:href="#p" />
<use x="416" y="96" xlink:href="#p" />
<use x="416" y="128" xlink:href="#p" />
<use x="416" y="144" xlink:href="#p" />
<use x="416" y="160" xlink:href="#p" />
<use x="416" y="176" xlink:href="#p" />
<use x="416" y="224" xlink:href="#p" />
<use x="416" y="240" xlink:href="#p" />
<use x="416" y="256" xlink:href="#p" />
<use x="416" y="272" xlink:href="#p" />
<use x="416" y="288" xlink:href="#p" />
<use x="416" y="304" xlink:href="#p" />
<use x="416" y="336" xlink:href="#p" />
<use x="416" y="352" xlink:href="#p" />
<use x="416" y="368" xlink:href="#p" />
<use x="416" y="384" xlink:href="#p" />
<use x="416" y="416" xlink:href="#p" />
<use x="416" y="448" xlink:href="#p" />
<use x="416" y="480" xlink:href="#p" />
<use x="416" y="496" xlink:href="#p" />
<use x="432" y="0" xlink:href="#p" />
<use x="432" y="96" xlink:href="#p" />
<use x="432" y="144" xlink:href="#p" />
<use x="432" y="160" xlink:href="#p" />
<use x="432" y="176" xlink:href="#p" />
<use x="432" y="192" xlink:href="#p" />
<use x="432" y="208" xlink:href="#p" />
<use x="432" y="224" xlink:href="#p" />
<use x="432" y="288" xlink:href="#p" />
<use x="432" y="336" xlink:href="#p" />
<use x="432" y="352" xlink:href="#p" />
<use x="432" y="384" xlink:href="#p" />
<use x="432" y="448" xlink:href="#p" />
<use x="432" y="464" xlink:href="#p" />
<use x="432" y="480" xlink:href="#p" />
<use x="432" y="496" xlink:href="#p" />
<use x="448" y="0" xlink:href="#p" />
<use x="448" y="32" xlink:href="#p" />
<use x="448" y="48" xlink:href="#p" />
<use x="448" y="64" xlink:href="#p" />
<use x="448" y="96" xlink:href="#p" />
<use x="448" y="160" xlink:href="#p" />
<use x="448" y="192" xlink:href="#p" />
<use x="448" y="224" xlink:href="#p" />
<use x="448" y="240" xlink:href="#p" />
<use x="448" y="256" xlink:href="#p" />
<use x="448" y="272" xlink:href="#p" />
<use x="448" y="288" xlink:href="#p" />
<use x="448" y="304" xlink:href="#p" />
<use x="448" y="384" xlink:href="#p" />
<use x="448" y="400" xlink:href="#p" />
<use x="448" y="416" xlink:href="#p" />
<use x="448" y="432" xlink:href="#p" />
<use x="448" y="448" xlink:href="#p" />
<use x="448" y="496" xlink:href="#p" />
<use x="448" y="512" xlink:href="#p" />
<use x="464" y="0" xlink:href="#p" />
<use x="464" y="32" xlink:href="#p" />
<use x="464" y="48" xlink:href="#p" />
<use x="464" y="64" xlink:href="#p" />
<use x="464" y="96" xlink:href="#p" />
<use x="464" y="128" xlink:href="#p" />
<use x="464" y="144" xlink:href="#p" />
<use x="464" y="160" xlink:href="#p" />
<use x="464" y="176" xlink:href="#p" />
<use x="464" y="192" xlink:href="#p" />
<use x="464" y="240" xlink:href="#p" />
<use x="464" y="256" xlink:href="#p" />
<use x="464" y="272" xlink:href="#p" />
<use x="464" y="320" xlink:href="#p" />
<use x="464" y="368" xlink:href="#p" />
<use x="464" y="384" xlink:href="#p" />
<use x="464" y="400" xlink:href="#p" />
<use x="464" y="432" xlink:href="#p" />
<use x="464" y="464" xlink:href="#p" />
<use x="464" y="512" xlink:href="#p" />
<use x="480" y="0" xlink:href="#p" />
<use x="480" y="32" xlink:href="#p" />
<use x="480" y="48" xlink:href="#p" />
<use x="480" y="64" xlink:href="#p" />
<use x="480" y="96" xlink:href="#p" />
<use x="480" y="144" xlink:href="#p" />
<use x="480" y="208" xlink:href="#p" />
<use x="480" y="240" xlink:href="#p" />
<use x="480" y="256" xlink:href="#p" />
<use x="480" y="288" xlink:href="#p" />
<use x="480" y="320" xlink:href="#p" />
<use x="480" y="432" xlink:href="#p" />
<use x="480" y="448" xlink:href="#p" />
<use x="480" y="480" xlink:href="#p" />
<use x="480" y="512" xlink:href="#p" />
<use x="496" y="0" xlink:href="#p" />
<use x="496" y="96" xlink:href="#p" />
<use x="496" y="128" xlink:href="#p" />
<use x="496" y="160" xlink:href="#p" />
<use x="496" y="208" xlink:href="#p" />
<use x="496" y="272" xlink:href="#p" />
<use x="496" y="288" xlink:href="#p" />
<use x="496" y="304" xlink:href="#p" />
<use x="496" y="352" xlink:href="#p" />
<use x="496" y="368" xlink:href="#p" />
<use x="496" y="400" xlink:href="#p" />
<use x="496" y="432" xlink:href="#p" />
<use x="512" y="0" xlink:href="#p" />
<use x="512" y="16" xlink:href="#p" />
<use x="512" y="32" xlink:href="#p" />
<use x="512" y="48" xlink:href="#p" />
<use x="512" y="64" xlink:href="#p" />
<use x="512" y="80" xlink:href="#p" />
<use x="512" y="96" xlink:href="#p" />
<use x="512" y="128" xlink:href="#p" />
<use x="512" y="144" xlink:href="#p" />
<use x="512" y="160" xlink:href="#p" />
<use x="512" y="272" xlink:href="#p" />
<use x="512" y="304" xlink:href="#p" />
<use x="512" y="336" xlink:href="#p" />
<use x="512" y="352" xlink:href="#p" />
<use x="512" y="448" xlink:href="#p" />
<use x="512" y="464" xlink:href="#p" />
<use x="512" y="496" xlink:href="#p" />
</g>
</svg>